<?xml version="1.0" encoding="utf-8"?>
<!-- Generator: Adobe Illustrator 25.2.0, SVG Export Plug-In . SVG Version: 6.00 Build 0)  -->
<svg version="1.1" id="katman_1" xmlns="http://www.w3.org/2000/svg" xmlns:xlink="http://www.w3.org/1999/xlink" x="0px" y="0px"
	 viewBox="18 10 513 380" style="enable-background:new 0 0 560 400;" xml:space="preserve">
<style type="text/css">
	.st0{fill:#ED1B2E;}
	.st1{fill:#231F20;}
	.st2{fill:#FFFFFF;}
</style>
<g transform="matrix(1.2599 0 0 1.2599 -8.70683 -11.7612)">
	<path d="M289.53,168.23c0,11.11-7.82,18.68-17.95,18.68c-10.14,0-17.34-7.69-17.34-17.83c0-9.04,6.35-18.56,18.32-18.56
		C281.84,150.52,289.53,157.73,289.53,168.23z M229.33,186.18h-14.29v-1.22c4.52-0.37,4.88-0.73,4.88-6.59v-19.29
		c0-5.86-0.49-6.23-4.76-6.47v-1.22h13.8c3.42,0,6.47,0.49,8.43,1.83c2.2,1.34,3.54,3.79,3.54,6.84c0,4.4-2.69,7.57-7.08,9.4
		c0.98,1.59,3.18,5.25,4.76,7.69c1.95,2.81,3.05,4.27,4.52,5.86c1.1,1.34,2.08,2.2,4.03,2.69l-0.12,0.98h-0.73
		c-6.11-0.12-8.06-2.08-10.01-5.01c-1.71-2.44-3.91-6.35-5.37-8.91c-0.86-1.34-1.71-1.95-3.42-1.95h-2.93v7.57
		c0,5.86,0.49,6.23,4.76,6.59V186.18z M313.22,186.54h-1.47l-9.28-28.7c-1.46-4.4-2.2-4.76-5.25-5.13v-1.22h13.07v0.98l-1.71,0.24
		c-2.44,0.37-2.69,0.86-1.95,3.18l7.2,22.83h0.12l8.55-26.86h1.34l9.65,26.86h0.12c2.2-6.72,5.25-18.07,6.23-21.86
		c0.73-3.05,0.49-3.79-1.95-4.03l-1.59-0.24v-1.22h11.36v1.22c-3.54,0.49-3.91,0.61-5.62,5.5c-0.49,1.34-4.4,13.68-8.91,28.33h-1.46
		l-9.65-26.13l-0.12,0.12L313.22,186.54z M367.68,186.06h-12.82v-1.22c2.93-0.12,4.4-0.86,4.64-2.81c0.24-1.71,0.49-4.52,0.49-10.14
		v-11.6c0-3.91,0-4.76-0.98-5.98c-0.98-1.34-2.44-1.71-4.76-1.83v-1.22h7.82l22.59,26.99h0.12v-12.7c0-5.62-0.24-8.55-0.49-10.14
		c-0.24-1.83-1.71-2.56-5.25-2.81v-1.22h12.82v1.22c-2.93,0.12-4.4,0.85-4.64,2.81c-0.24,1.71-0.49,4.52-0.49,10.14v20.88h-1.34
		l-23.32-28.21h-0.12v13.68c0,5.62,0.24,8.55,0.49,10.14c0.24,1.83,1.71,2.56,5.25,2.81L367.68,186.06z M190.75,186.18h-12.33v-1.22
		c4.52-0.37,4.88-0.73,4.88-6.59v-19.29c0-5.86-0.37-6.23-4.64-6.47v-1.22h14.41v-0.12c3.91,0,6.11,0.61,7.82,1.83
		c1.83,1.34,2.81,3.17,2.81,5.86c0,4.76-4.4,6.96-6.96,7.69v0.12c4.88,0.73,9.28,3.54,9.28,9.04c0,3.79-1.83,6.47-5.01,8.3
		C198.32,185.57,194.9,186.18,190.75,186.18L190.75,186.18z M271.09,152.23c-6.35,0-11.72,5.25-11.72,15.26
		c0,10.38,5.37,17.58,13.19,17.58c6.47,0,11.72-5.01,11.72-14.9C284.4,158.58,278.79,152.23,271.09,152.23z M190.99,167.98h-3.17
		v11.72c0,3.54,0.73,4.76,4.64,4.76c4.52,0,8.3-2.2,8.3-7.94C200.76,170.67,196.49,167.98,190.99,167.98L190.99,167.98z
		 M227.82,152.84c-1.71,0.01-2.41,0.13-2.88,0.24c-0.37,0.12-0.49,0.37-0.49,1.46v14.65h3.18c2.2,0,3.91-0.24,5.37-1.47
		c2.32-1.83,3.05-4.4,3.05-7.08c0-5.62-4.03-7.82-8.06-7.82L227.82,152.84z M187.82,166.4h3.42c5.13,0,7.69-2.44,7.69-6.84
		c0-3.17-1.34-6.84-7.69-6.84c-1.71,0-2.56,0.12-2.93,0.37c-0.37,0.12-0.49,0.37-0.49,1.34V166.4z"/>
	<path class="st0" d="M106.37,244.55l5.98,1.47l5.86-1.47v-46.04h37.73v-10.62h-37.73v-34.44h-11.84v34.44H68.64v10.62h37.73
		L106.37,244.55z"/>
	<path class="st0" d="M118.58,135.38c6.59,0.49,6.59,4.64,8.18,6.59c0.61,0.73-5.25,2.44-11.36,0.73c-1.95-0.85-3.54-5.5-4.15-6.11
		C111.01,136.36,114.79,135.01,118.58,135.38L118.58,135.38z M144.95,142.46c6.11,1.71,10.01,0.12,10.62-1.1
		c0.61-1.34-0.85-5.74-7.45-6.23c-3.79-0.37-7.57,0.98-7.33,1.22C141.29,136.97,142.88,141.61,144.95,142.46L144.95,142.46z
		 M89.03,135.01c6.47,0.61,6.59,4.64,8.18,6.59c0.61,0.73-5.25,2.44-11.36,0.73c-1.95-0.86-3.54-5.5-4.15-6.11
		C81.46,136.11,85.24,134.65,89.03,135.01z"/>
	<g>
		<path class="st1" d="M159.85,123.41c-0.49-0.37-6.23-1.1-7.08-1.1c-0.85,0-5.74,0-7.69,0.37c-2.93,0.49-8.06,0.49-11.84,0
			c-1.34-0.12-2.93,0.12-4.15,0.61c0.24-0.24,0.49-0.49,0.85-0.73c1.1-1.22,2.44-3.42,4.64-4.52c0.61-0.24,1.1-0.61,1.59-0.85
			c1.83,0.98,4.88,1.59,8.55-0.12c5.49,2.81,8.79,0.86,10.01-0.12c1.46-1.22,2.2-2.93,2.2-4.76c0-0.61-0.12-1.22-0.24-1.83
			c-0.85-2.44-2.93-3.91-5.98-4.27c-0.12-0.61-0.49-1.22-0.73-1.83c0.37-0.49,0.73-0.86,0.86-1.1c0.24-0.37,1.22-1.83-1.22-0.61
			c-0.12,0.12-0.37,0.24-0.61,0.37c-0.37-0.37-0.73-0.61-1.1-0.85c-2.32-1.34-5.37-1.59-8.43-0.73c-0.49-1.71-1.22-3.05-2.56-3.91
			c-1.34-0.85-3.18-1.1-5.25-0.73c0.12-0.24,0.24-0.61,0.37-0.73c0.86-1.95,0.37-2.44-0.49-1.59c-1.1,0.98-1.71,1.71-2.32,2.2
			c-1.95-3.18-4.52-5.25-7.57-5.98c-2.69-0.73-5.49-0.37-8.06,0.86c-0.12-1.34-0.37-2.32-0.49-2.93c-0.49-1.59-1.1-0.37-1.1,0.12
			c-0.12,0.61-0.24,1.59-0.37,2.56c-2.56-1.34-5.37-1.71-8.06-0.98c-2.93,0.85-5.13,3.05-6.47,6.1c-1.1-0.37-2.08-0.61-2.93-0.73
			c-0.49-0.73-1.34-1.59-2.44-2.56c-0.73-0.61-1.34-0.37-0.98,0.98c0.12,0.49,0.37,0.98,0.49,1.34c-2.08,0.12-3.66,0.85-4.64,1.59
			c-2.08,1.59-2.81,3.78-3.05,5.25c-0.12,0-0.24,0.12-0.24,0.12c-1.71,0.37-4.03,0.98-5.37,3.3c-0.24-0.12-0.49-0.24-0.49-0.37
			c-4.27-2.81-2.32,0.86-0.61,2.44c-5.74,0.85-7.33,3.54-7.69,5.13C69,113.16,69,113.64,69,114.01c0,1.83,0.98,3.66,2.56,4.76
			c1.95,1.34,4.15,1.22,6.23-0.12c2.69,0.86,6.47,0.73,9.16-1.22c1.59,1.71,2.81,2.93,3.54,3.54c1.71,1.71,4.27,2.93,5.5,3.42
			c-1.22-0.49-3.42-0.98-5.5-0.73c-4.52,0.61-7.57-0.24-9.52-0.37c-3.18-0.37-6.47,0.24-8.18,0.24s-4.15,0.86-5.37,0.98
			c-1.34,0.24-1.22,1.1,0.61,1.59c1.83,0.49,5.13,0.73,5.98,1.22c2.93,1.22,7.82,2.32,11.23,2.08c2.44-0.24,4.88,0.98,5.5,1.22
			c1.22,0.37,4.15,1.22,5.37,1.22c0-0.12,0,1.71,0.12,2.56c-0.49,0.12-0.85,0.37-1.34,0.49c-1.34-0.85-7.33-3.3-14.65-0.24
			c-1.59-0.49-4.76-2.32-9.28-0.86c-5.5,1.83-4.64,6.84-2.81,9.16c2.44,3.17,6.96,2.44,8.3,0.98c2.93,1.95,5.98,1.34,8.18,0
			c1.47,0.86,8.55,2.2,13.92,0c0.73,0.49,3.66,2.08,7.45,0.12c2.2,1.34,5.86,1.34,7.69-0.24c0.61,0.61,2.69,1.34,6.96,1.34
			c5.13,0,6.35-0.86,7.08-1.47c1.1,0.49,4.03,2.08,7.57,0.49c1.95,1.22,5.86,1.1,7.94-0.24c3.79,1.71,10.75,0.98,12.45-0.24
			c3.18-2.2,1.59-6.59-1.83-8.67c-6.72-3.42-13.07-0.73-14.65,0.12c-1.95-1.34-6.11-2.2-10.5-1.34c0.12-0.49,0-1.1,0-1.71v-0.24
			c0.86-0.24,2.08-1.22,4.52-1.34c3.42-0.24,11.36-0.12,15.26-2.2c2.32-1.22,10.14-2.69,11.23-3.3
			C160.71,124.27,160.46,123.78,159.85,123.41L159.85,123.41z M130.91,118.77c-2.81,3.42-4.27,4.52-4.76,4.52
			c-0.61-1.1-1.71-2.44-2.56-3.18c0.98-1.1,5.5-3.18,7.57-4.76c0.37-0.24,1.22-0.73,1.59-0.98c0.49,0.61,1.22,1.22,1.95,1.71
			C132.87,117.19,131.89,117.8,130.91,118.77z M89.64,111.45c2.44,0.37,5.25-0.24,7.2-2.08c2.56,4.03,2.56,7.57,5.01,10.14
			c-3.05-2.93-5.74-2.93-10.14-5.25c-0.73-0.37-1.83-1.1-2.2-1.34c0-0.37,0.12-0.73,0.12-1.22
			C89.64,111.69,89.64,111.57,89.64,111.45z M108.2,115.96c0.12,0.12-1.22-1.83-1.34-2.08c-0.49-0.73-1.1-1.34-1.71-2.2
			c-1.1-1.22-1.95-2.32-2.69-3.05c1.71-0.37,3.79-1.46,5.86-3.42c0.24,0.12,0.49,0.24,0.73,0.49c-0.12,0.73-0.24,1.34-0.37,1.71
			c-0.49,2.69-0.49,4.76-0.61,5.62C108.08,113.89,108.2,115.23,108.2,115.96z M104.41,113.52c1.1,1.34,1.95,3.05,2.2,3.42
			c-0.86,0.37-2.44,1.1-3.42,1.71c-1.71-1.71-3.05-7.08-3.91-8.43c-0.37-0.49-0.61-0.85-0.73-1.22c0.61,0.24,1.47,0.12,2.08,0.24
			C100.87,109.37,102.34,110.71,104.41,113.52z M112.23,117.43c8.3,0,14.9,6.59,14.9,14.9c0,0.61,0,1.34-0.12,2.2
			c-0.85,0.24-1.83,0.61-2.69,0.98c-4.27-2.56-10.14-2.32-14.29,0c-2.56-1.95-8.18-2.2-12.46-1.22c-0.12-0.85-0.24-1.59-0.24-1.95
			C97.45,124.02,104.05,117.43,112.23,117.43L112.23,117.43z M110.15,111.69c0.12-2.81,0.73-4.64,0.73-5.01
			c0.61,0.24,1.34,0.49,1.95,0.73c0.49,1.1,1.46,5.74,1.1,8.55c-1.22-0.12-2.69-0.12-3.66,0
			C110.03,115.48,110.03,113.15,110.15,111.69z M123.34,112.06c-0.86,1.83-0.37,4.15-2.56,6.23c-0.24-0.24-2.44-1.22-3.3-1.59
			c0.37-2.93,3.05-6.47,4.76-7.94c0.49,0.61,1.34,1.22,1.95,1.59C124.07,110.59,123.71,111.2,123.34,112.06z M125.66,111.45
			c0.12-0.12,0.12-0.24,0.24-0.49c1.59,0.49,3.42,0.61,5.13,0.49c0.12,0.61,0.49,1.22,0.73,1.83c-0.86,0.37-3.42,2.2-7.2,4.27
			c-0.98,0.49-1.59,1.1-1.95,1.47c0.37-0.61,0.98-1.34,1.22-2.08C124.44,115.11,124.32,113.77,125.66,111.45z M116.5,113.64
			c-0.37,0.98-0.61,1.59-0.73,2.2c0.37-2.2-0.24-5.5-0.98-8.3c1.95,0,3.91-0.49,5.86-1.59c0.12,0.49,0.37,0.85,0.61,1.22
			C120.17,108.15,117.48,110.96,116.5,113.64L116.5,113.64z M85.98,115.96c-2.2,1.83-5.86,1.95-8.18,1.1
			c-0.24-0.12-0.61-0.12-0.85,0.12c-1.47,1.1-3.18,1.22-4.52,0.24c-1.34-0.98-2.08-2.56-1.71-4.15c0.49-2.08,3.05-3.54,6.96-3.91
			c0.37,0,0.73-0.37,0.85-0.73c0.73-3.54,3.05-4.03,5.25-4.52l0.98-0.24c0.49-0.12,0.73-0.49,0.61-0.98
			c-0.12-0.61,0.49-2.93,2.32-4.4c2.2-1.71,5.5-1.71,9.52-0.12c0.24,0.12,0.49,0.12,0.73,0c0.24-0.12,0.37-0.24,0.49-0.49
			c0.98-2.93,3.05-5.01,5.62-5.74c2.69-0.86,5.62-0.24,8.18,1.59c0.37,0.24,0.73,0.24,1.1,0c2.44-1.59,5.37-2.08,7.94-1.34
			c2.93,0.73,5.37,2.93,7.2,6.35c0.24,0.37,0.73,0.61,1.1,0.49c2.81-0.98,5.01-0.98,6.47-0.12c1.47,0.86,1.83,2.32,2.08,3.54
			c0,0.24,0.24,0.49,0.37,0.61c0.24,0.12,0.49,0.12,0.73,0.12c2.93-0.98,5.86-0.85,7.82,0.37c1.34,0.85,2.08,1.95,2.32,3.42
			c0.12,0.37,0.37,0.73,0.85,0.73c2.56,0.12,4.4,1.34,5.01,3.05c0.49,1.59,0,3.54-1.34,4.64c-1.95,1.59-5.01,1.47-8.3-0.24
			c-0.24-0.12-0.61-0.12-0.85,0c-2.69,1.34-5.13,1.47-7.45,0.24c-2.69-1.34-4.27-4.15-4.4-5.5c0-0.24-0.12-0.49-0.37-0.61
			c-0.24-0.12-0.49-0.24-0.73-0.12c-1.83,0.24-8.06,0.85-9.4-5.13c-0.12-0.24-0.24-0.49-0.49-0.61c-0.24-0.12-0.61,0.12-0.86,0.24
			c-4.03,2.69-8.06,2.44-11.84-0.61c-0.37-0.24-0.85-0.37-1.22,0c-4.4,4.4-7.94,4.15-9.65,3.42c-0.37-0.12-0.86,0-1.1,0.37
			c-1.71,2.69-5.37,3.17-7.82,2.44c-0.24-0.12-0.61-0.12-0.86,0.12c-0.24,0.24-0.37,0.49-0.37,0.86
			C88.17,112.67,87.56,114.62,85.98,115.96L85.98,115.96z M88.05,116.7c0.37-0.49,0.86-1.47,1.1-2.2c0.24,0.12,0.37,0.24,0.49,0.37
			c0.12,0,1.47,0.98,2.32,1.46c3.79,1.83,6.11,2.2,8.67,4.27c-0.98,0.98-1.95,2.2-2.44,3.3C92.81,122.31,88.66,117.55,88.05,116.7z
			 M90.86,128.79c-0.49-0.24-3.66-1.34-5.5-1.22c-3.79,0.24-8.55-0.85-10.87-1.83c-0.61-0.24-5.74-0.73-0.73-0.73
			c1.71,0,3.66-0.49,7.08,0c1.95,0.24,5.37,0.61,10.5,0.24c2.56-0.24,4.4,0.61,5.37,1.59c-0.24,0.73-0.61,2.56-0.61,3.18
			C94.65,130.01,92.2,129.27,90.86,128.79L90.86,128.79z M78.16,142.46c-2.32-1.59-3.79-4.64-5.37-4.15
			c-0.61,0.24-0.73,1.47,0.12,1.47c0.61,0,1.71,1.71,2.44,2.44c-0.12,0.86-2.44,1.83-4.88,0.37c-1.1-0.61-2.81-2.81-1.34-5.5
			c0.85-1.46,3.05-2.2,5.86-2.08c5.25,0.12,6.84,6.1,8.06,7.33C83.05,142.83,80.11,143.93,78.16,142.46z M85.85,142.34
			c-1.95-0.86-3.54-5.5-4.15-6.11c-0.24-0.24,3.54-1.59,7.33-1.22c6.59,0.61,6.59,4.64,8.18,6.59
			C97.82,142.46,91.84,144.05,85.85,142.34L85.85,142.34z M107.22,142.83c-0.61-0.37-2.44-2.69-3.18-3.54
			c-0.61-0.85-1.83-1.59-2.44-0.85c-0.37,0.49,0,0.98,0.61,1.22c0.61,0.37,2.2,2.32,2.32,2.81c-0.12,0.61-3.05,1.71-4.76-0.37
			c-0.85-1.1-2.56-4.27-3.66-5.62c3.79-1.34,8.18-1.83,11.36-0.37c3.05,1.47,3.54,4.64,4.76,6.23
			C112.47,143.44,109.05,144.05,107.22,142.83L107.22,142.83z M115.4,142.71c-1.95-0.85-3.54-5.5-4.15-6.11
			c-0.24-0.24,3.54-1.59,7.33-1.22c6.59,0.61,6.59,4.64,8.18,6.59C127.37,142.71,121.51,144.42,115.4,142.71L115.4,142.71z
			 M148.13,135.14c6.59,0.61,8.06,4.88,7.45,6.23c-0.61,1.22-4.52,2.81-10.62,1.1c-1.95-0.86-3.54-5.5-4.15-6.11
			C140.44,136.11,144.22,134.77,148.13,135.14L148.13,135.14z M137.02,136.11c3.05,1.47,3.66,4.64,4.76,6.23
			c0.24,1.1-3.42,1.34-5.01,0.49c-0.61-0.37-2.44-2.69-3.17-3.54c-0.61-0.85-1.71-1.34-2.2-0.61c-0.37,0.49,0.12,0.98,0.61,1.22
			c0.73,0.37,1.95,2.2,2.08,2.56c-0.12,0.61-2.69,1.46-4.64-0.49c-0.98-0.98-2.69-4.4-3.42-5.74
			C129.81,135.01,133.84,134.65,137.02,136.11z M154.6,124.76c-1.95,0.37-4.27,0.98-7.08,1.95c-3.79,1.46-11.11,1.83-14.17,1.83
			c-2.93,0-3.78,1.22-4.88,1.1c0-1.59-0.98-3.79-0.98-3.79c0.85-0.49,3.54-1.34,5.98-1.22c3.17,0.12,8.91,0.37,11.97-0.12
			c1.47-0.24,6.84-0.24,7.57-0.24c0.61,0,1.59,0.12,1.83,0.12C156.19,124.51,155.21,124.63,154.6,124.76z"/>
		<path class="st1" d="M77.92,112.06c-1.59,0-2.93,0-4.03,1.22c-1.22,1.34-0.85,1.95-1.1,2.2c-0.37,0.37-1.1-0.24-1.1-0.86
			c0.12-3.05,3.79-4.27,5.98-4.03C78.53,110.71,78.65,112.06,77.92,112.06"/>
		<path class="st1" d="M84.51,106.93c-2.32,0.24-3.05,1.34-3.42,2.69c-0.12,0.49-1.47,0.12-1.22-0.85c0.61-2.93,3.79-3.54,4.88-3.3
			C85,105.58,84.88,106.93,84.51,106.93"/>
		<path class="st1" d="M94.65,100.7c-4.15-1.59-6.23,1.47-6.84,4.03c-0.12,0.37-1.47,0.24-1.22-0.85c0.49-2.56,2.93-6.23,8.67-4.76
			C95.74,99.24,95.38,100.94,94.65,100.7"/>
		<path class="st1" d="M110.03,96.55c-3.79-2.56-6.84-0.49-8.43,1.34c-0.73,0.86-1.59-0.61-1.22-1.1c1.34-2.2,6.1-5.5,10.26-1.83
			C111.13,95.45,110.64,96.91,110.03,96.55"/>
		<path class="st1" d="M125.78,100.09c-0.37,0.24-0.49-0.24-0.73-0.61c-3.42-5.37-9.52-3.91-11.24-1.47
			c-0.37,0.49-1.22-0.85-0.73-1.59c1.47-2.44,9.28-4.64,13.31,2.2C126.76,99.36,126.15,99.85,125.78,100.09"/>
		<path class="st1" d="M135.31,103.51c-0.98-2.56-2.81-2.44-4.88-1.71c-0.98,0.37-0.73-1.34-0.37-1.46c2.08-0.73,5.62-1.1,6.59,2.44
			C136.77,103.75,135.55,104.24,135.31,103.51"/>
		<path class="st1" d="M146.54,108.88c-1.71-3.18-4.52-3.18-6.84-2.32c-0.49,0.24-0.98-1.1-0.12-1.59c2.2-1.22,6.84-1.1,8.18,3.05
			C148.01,108.76,147.03,109.98,146.54,108.88"/>
		<path class="st1" d="M153.63,113.89c-0.12,0.49-1.47,0.61-1.34,0c0.24-2.56-1.1-2.81-2.81-2.81c-0.61,0-0.61-1.34-0.12-1.47
			C151.67,109.13,154.36,110.83,153.63,113.89"/>
		<path class="st1" d="M109.05,127.2c0,0.98-0.86,1.71-1.83,1.59c-0.98,0-1.71-0.85-1.59-1.83v-0.24c-0.12-0.24-0.98-0.49-2.08,0.24
			c-0.61,0.37-1.22,0.12-0.24-0.73c1.1-0.98,2.08-1.47,2.93-1.59c1.47-0.12,3.42,0.24,4.4,0.61c0.37,0.12,0,2.08-0.12,1.95
			c-0.37-0.12-0.98-0.37-1.59-0.24L109.05,127.2z"/>
		<path class="st1" d="M113.94,132.45c-0.24,0.85-3.42,1.22-4.03,0c-0.24-0.49-0.49-1.59-0.12-1.34c0.73,0.37,3.18,0.12,3.66,0
			c0.37-0.12,0.12-0.73,0.37-0.61C114.3,130.49,114.3,131.59,113.94,132.45"/>
		<path class="st1" d="M121.39,127.56c-0.73-0.61-1.83-0.98-2.2-0.61v0.12c0.12,0.98-0.61,1.83-1.59,1.83
			c-0.98,0.12-1.83-0.61-1.83-1.59v-0.12c-0.61-0.24-1.59,0.12-1.71,0.12c-0.12,0-0.49-1.83,0-2.08c1.47-0.61,6.35-0.85,7.69,1.83
			C121.88,127.44,121.75,127.81,121.39,127.56"/>
		<path class="st1" d="M120.17,153.45h35.78v32.48h-35.78L120.17,153.45z M68.64,153.45h35.78v32.48H68.64V153.45z M104.54,243.94
			c-9.16-2.69-18.2-6.35-23.93-11.72c-2.08-1.95-3.79-3.91-5.25-6.23h9.16v1.34h4.27v-1.34h10.26v-17.34h-2.2v-3.18
			c-2.2,0.49-5.86-0.73-7.45-0.73c-1.83,0-2.69,0.73-2.69,0.73s-0.98-0.73-2.69-0.73c-1.59,0-5.25,1.22-7.45,0.73v3.18h-2.2v15.51
			c-3.54-6.11-5.13-13.43-5.5-22.35l-0.12-1.34h35.78L104.54,243.94z M78.28,222.57v-14.9c1.22,0.24,3.42-0.61,5.74-0.73
			c1.22,0,1.59,0.61,1.59,0.61v15.02c0,0-1.34-0.86-4.15-0.12C79.14,223.18,78.28,222.57,78.28,222.57z M87.81,222.57v-15.02
			c0,0,0.37-0.73,1.59-0.61c2.2,0.12,4.4,0.98,5.74,0.73v14.9c0,0-0.85,0.61-3.05,0C89.03,221.71,87.81,222.57,87.81,222.57z
			 M118.21,244.55l-5.98,1.47l-5.86-1.59v-45.91H68.64v-10.62h37.73v-34.44h11.84v34.44h37.61v10.62h-37.61V244.55z M150.57,224.4
			v-15.63h-2.2v-3.17c-2.2,0.49-5.86-0.73-7.45-0.73c-1.83,0-2.69,0.73-2.69,0.73s-0.85-0.73-2.69-0.73c-1.59,0-5.25,1.22-7.45,0.73
			v3.17h-2.2v17.34h10.26v1.34h4.27v-1.34h9.28c-1.47,2.2-3.3,4.27-5.37,6.23c-6.11,5.5-15.02,9.04-24.06,11.6v-43.47h35.78v1.47
			C155.46,211.7,153.87,218.66,150.57,224.4L150.57,224.4z M146.54,207.55v14.9c0,0-0.86,0.61-3.05,0
			c-2.93-0.86-4.15,0.12-4.15,0.12v-15.02c0,0,0.37-0.73,1.59-0.61C143.12,206.94,145.32,207.79,146.54,207.55L146.54,207.55z
			 M137.02,207.55v15.02c0,0-1.34-0.86-4.15-0.12c-2.2,0.61-3.05,0-3.05,0v-14.9c1.22,0.24,3.42-0.61,5.74-0.73
			C136.77,206.81,137.02,207.55,137.02,207.55L137.02,207.55z M66.44,151.25v48.11c0,15.88,3.91,26.86,12.45,34.56
			c8.43,7.69,21,11.6,33.34,14.53c12.7-3.05,24.91-6.72,33.34-14.53c8.55-7.69,12.45-18.68,12.45-34.56v-48.11H66.44z"/>
		<path class="st1" d="M96.84,162v-3.18c-2.2,0.49-5.86-0.73-7.45-0.73c-1.83,0-2.69,0.73-2.69,0.73s-0.98-0.73-2.69-0.73
			c-1.59,0-5.25,1.22-7.45,0.73V162h-2.2v17.34h10.26v1.34h4.27v-1.34h10.26V162H96.84z M85.49,175.8c0,0-1.34-0.85-4.15-0.12
			c-2.2,0.61-3.05,0-3.05,0v-14.9c1.22,0.24,3.42-0.61,5.74-0.73c1.22,0,1.59,0.61,1.59,0.61L85.49,175.8z M95.01,175.68
			c0,0-0.86,0.61-3.05,0c-2.93-0.85-4.15,0.12-4.15,0.12v-15.02c0,0,0.37-0.73,1.59-0.61c2.2,0.12,4.4,0.98,5.74,0.73L95.01,175.68z
			"/>
		<path class="st1" d="M148.37,162v-3.18c-2.2,0.49-5.86-0.73-7.45-0.73c-1.83,0-2.69,0.73-2.69,0.73s-0.85-0.73-2.69-0.73
			c-1.59,0-5.25,1.22-7.45,0.73V162h-2.2v17.34h10.26v1.34h4.27v-1.34h10.26V162H148.37z M136.77,175.8c0,0-1.34-0.85-4.15-0.12
			c-2.2,0.61-3.05,0-3.05,0v-14.9c1.22,0.24,3.42-0.61,5.74-0.73c1.22,0,1.59,0.61,1.59,0.61v15.14H136.77z M146.3,175.68
			c0,0-0.86,0.61-3.05,0c-2.93-0.85-4.15,0.12-4.15,0.12v-15.02c0,0,0.37-0.73,1.59-0.61c2.2,0.12,4.39,0.98,5.74,0.73v14.77
			L146.3,175.68z"/>
	</g>
	<g>
		<path class="st2" d="M120.17,243.94c9.04-2.56,17.95-6.11,24.06-11.6c2.2-1.95,3.91-4.03,5.37-6.23h-9.28v1.34h-4.27v-1.34h-10.26
			v-17.34h2.2v-3.17c2.2,0.49,5.86-0.73,7.45-0.73c1.83,0,2.69,0.73,2.69,0.73s0.98-0.73,2.69-0.73c1.59,0,5.25,1.22,7.45,0.73v3.17
			h2.2v15.63c3.3-5.74,4.88-12.7,5.37-22.47v-1.47h-35.78v43.47L120.17,243.94z"/>
		<path class="st2" d="M68.76,201.81c0.37,8.91,2.08,16.24,5.5,22.35v-15.51h2.2v-3.18c2.2,0.49,5.86-0.73,7.45-0.73
			c1.83,0,2.69,0.73,2.69,0.73s0.98-0.73,2.69-0.73c1.59,0,5.25,1.22,7.45,0.73v3.18h2.2v17.34H88.66v1.34h-4.27v-1.34h-9.16
			c1.46,2.2,3.17,4.27,5.25,6.23c5.74,5.37,14.65,9.04,23.93,11.72v-43.47H68.64L68.76,201.81z"/>
		<path class="st2" d="M85.49,222.57v-15.02c0,0-0.37-0.73-1.59-0.61c-2.2,0.12-4.4,0.98-5.74,0.73v14.9c0,0,0.85,0.61,3.05,0
			C84.27,221.71,85.49,222.57,85.49,222.57z"/>
		<path class="st2" d="M74.5,125.73c2.32,0.98,7.2,2.08,10.87,1.83c1.83-0.12,4.88,0.98,5.5,1.22c1.34,0.49,3.78,1.22,5.13,1.22
			c0.12-0.61,0.37-2.44,0.61-3.18c-0.98-0.98-2.93-1.83-5.37-1.59c-5.13,0.37-8.55,0.12-10.5-0.24c-3.3-0.49-5.37,0-7.08,0
			C68.64,125.12,73.89,125.49,74.5,125.73L74.5,125.73z"/>
		<path class="st2" d="M84.02,160.05c-2.2,0.12-4.4,0.98-5.74,0.73v14.9c0,0,0.86,0.61,3.05,0c2.93-0.85,4.15,0.12,4.15,0.12v-15.02
			C85.49,160.78,85.12,160.05,84.02,160.05z"/>
		<path class="st2" d="M140.56,160.05c-1.22,0-1.59,0.61-1.59,0.61v15.02c0,0,1.34-0.85,4.15-0.12c2.2,0.61,3.05,0,3.05,0v-14.9
			C144.95,161.02,142.76,160.17,140.56,160.05L140.56,160.05z"/>
		<path class="st2" d="M155.95,153.45h-35.78v32.48h35.78L155.95,153.45z M150.57,179.34h-10.26v1.34h-4.27v-1.34h-10.26V162h2.2
			v-3.18c2.2,0.49,5.86-0.73,7.45-0.73c1.83,0,2.69,0.73,2.69,0.73s0.98-0.73,2.69-0.73c1.59,0,5.25,1.22,7.45,0.73V162h2.2
			L150.57,179.34z"/>
		<path class="st2" d="M139.34,207.55v15.02c0,0,1.34-0.86,4.15-0.12c2.2,0.61,3.05,0,3.05,0v-14.9c-1.34,0.24-3.42-0.61-5.74-0.73
			C139.7,206.81,139.34,207.55,139.34,207.55L139.34,207.55z"/>
		<path class="st2" d="M129.81,207.55v14.9c0,0,0.86,0.61,3.05,0c2.93-0.86,4.15,0.12,4.15,0.12v-15.02c0,0-0.37-0.73-1.59-0.61
			C133.23,206.94,131.16,207.79,129.81,207.55L129.81,207.55z"/>
		<path class="st2" d="M135.19,160.05c-2.2,0.12-4.4,0.98-5.74,0.73v14.9c0,0,0.86,0.61,3.05,0c2.93-0.85,4.15,0.12,4.15,0.12
			v-15.02C136.77,160.78,136.41,160.05,135.19,160.05L135.19,160.05z"/>
		<path class="st2" d="M100.75,120.6c-2.56-2.08-5.01-2.56-8.67-4.27c-0.86-0.37-2.32-1.34-2.32-1.46
			c-0.12-0.12-0.24-0.24-0.49-0.37c-0.24,0.73-0.73,1.71-1.1,2.2c0.61,0.73,4.76,5.62,10.26,7.08
			C98.8,122.8,99.77,121.58,100.75,120.6z"/>
		<path class="st2" d="M98.67,108.88c0.12,0.24,0.37,0.61,0.73,1.22c0.85,1.47,2.2,6.72,3.91,8.43c0.85-0.61,2.44-1.47,3.42-1.71
			c-0.24-0.37-1.1-1.95-2.2-3.42c-2.08-2.69-3.54-4.15-3.66-4.4C100.14,109.13,99.29,109.13,98.67,108.88z"/>
		<path class="st2" d="M97.58,134.28c4.27-0.98,10.01-0.85,12.46,1.22c4.03-2.32,10.01-2.44,14.29,0c0.86-0.49,1.71-0.73,2.69-0.98
			c0.12-0.86,0.12-1.59,0.12-2.2c0-8.3-6.59-14.9-14.9-14.9c-8.18,0-14.9,6.72-14.9,14.9C97.45,132.69,97.45,133.43,97.58,134.28
			L97.58,134.28z M114.06,125.24c1.47-0.61,6.35-0.85,7.69,1.83c0.12,0.37,0.12,0.73-0.37,0.37c-0.73-0.61-1.83-0.98-2.2-0.61v0.12
			c0.12,0.98-0.61,1.83-1.59,1.83c-0.98,0.12-1.83-0.61-1.83-1.59v-0.12c-0.61-0.24-1.59,0.12-1.71,0.12
			C113.82,127.32,113.45,125.49,114.06,125.24z M113.57,130.98c0.37-0.12,0.12-0.73,0.37-0.61c0.37,0.12,0.37,1.1,0,1.95
			c-0.24,0.85-3.42,1.22-4.03,0c-0.24-0.49-0.49-1.59-0.12-1.34C110.52,131.47,113.08,131.11,113.57,130.98L113.57,130.98z
			 M103.32,126.34c1.1-0.98,2.08-1.47,2.93-1.59c1.47-0.12,3.42,0.24,4.4,0.61c0.37,0.12,0,2.08-0.12,1.95
			c-0.37-0.12-0.98-0.37-1.59-0.24v0.12c0,0.98-0.86,1.71-1.83,1.59c-0.98,0-1.71-0.85-1.59-1.83v-0.24
			c-0.12-0.24-0.98-0.49-2.08,0.24C102.95,127.44,102.22,127.2,103.32,126.34L103.32,126.34z"/>
		<path class="st2" d="M107.47,136.11c-3.18-1.46-7.57-0.98-11.36,0.37c0.98,1.34,2.81,4.64,3.66,5.62
			c1.71,2.08,4.64,0.98,4.76,0.37c-0.24-0.37-1.83-2.44-2.32-2.81c-0.61-0.37-0.86-0.86-0.61-1.22c0.49-0.73,1.71,0,2.44,0.85
			c0.61,0.86,2.56,3.18,3.18,3.54c1.83,1.22,5.37,0.61,5.01-0.49C111.01,140.75,110.52,137.46,107.47,136.11L107.47,136.11z"/>
		<path class="st2" d="M74.99,135.01c-2.69,0-5.01,0.73-5.86,2.08c-1.47,2.56,0.24,4.88,1.34,5.5c2.44,1.47,4.64,0.49,4.88-0.37
			c-0.61-0.73-1.83-2.44-2.44-2.44c-0.85,0-0.85-1.22-0.12-1.47c1.59-0.49,3.18,2.44,5.37,4.15c2.08,1.46,4.88,0.37,4.88-0.24
			C81.7,141.12,80.24,135.14,74.99,135.01z"/>
		<path class="st2" d="M113.94,115.96c0.37-2.81-0.49-7.33-1.1-8.55c-0.73-0.12-1.47-0.37-1.95-0.73c-0.12,0.37-0.61,2.2-0.73,5.01
			c-0.12,1.46,0,3.79,0.24,4.27C111.25,115.84,112.72,115.84,113.94,115.96z"/>
		<path class="st2" d="M122.24,108.76c-1.71,1.46-4.4,5.13-4.76,7.94c0.86,0.37,2.93,1.34,3.3,1.59c2.2-2.08,1.71-4.52,2.56-6.23
			c0.37-0.73,0.73-1.34,0.98-1.71C123.59,109.86,122.85,109.37,122.24,108.76L122.24,108.76z"/>
		<path class="st2" d="M129.57,142.1c1.95,1.95,4.52,1.1,4.64,0.49c-0.24-0.37-1.47-2.2-2.08-2.56c-0.61-0.37-0.98-0.85-0.61-1.22
			c0.49-0.73,1.59-0.24,2.2,0.61c0.61,0.86,2.44,3.18,3.18,3.54c1.71,0.98,5.37,0.61,5.01-0.49c-0.98-1.59-1.71-4.88-4.76-6.23
			c-3.17-1.47-7.2-1.1-10.87,0.24C126.76,137.7,128.59,141.12,129.57,142.1z"/>
		<path class="st2" d="M128.59,129.64c0.98,0.12,1.95-1.1,4.88-1.1c3.05,0,10.38-0.37,14.16-1.83c2.81-1.1,5.13-1.59,7.08-1.95
			c0.61-0.12,1.59-0.24,0.37-0.49c-0.24,0-1.22-0.12-1.83-0.12c-0.86,0-6.11,0-7.57,0.24c-2.93,0.49-8.79,0.24-11.97,0.12
			c-2.32-0.12-5.13,0.85-5.98,1.22C127.62,125.73,128.47,128.05,128.59,129.64z"/>
		<path class="st2" d="M88.17,109.37c0.24-0.24,0.61-0.12,0.85-0.12c2.56,0.85,6.11,0.24,7.82-2.44c0.24-0.37,0.73-0.49,1.1-0.37
			c1.71,0.73,5.37,0.98,9.65-3.42c0.37-0.37,0.86-0.24,1.22,0c3.78,3.05,7.81,3.3,11.84,0.61c0.24-0.12,0.61-0.37,0.85-0.24
			c0.24,0.12,0.49,0.37,0.49,0.61c1.34,5.98,7.57,5.5,9.4,5.13c0.24,0,0.49,0,0.73,0.12c0.24,0.12,0.37,0.37,0.37,0.61
			c0.24,1.34,1.71,4.15,4.4,5.49c2.32,1.22,4.76,1.1,7.45-0.24c0.24-0.12,0.61-0.12,0.86,0c3.42,1.83,6.47,1.95,8.3,0.24
			c1.34-1.1,1.95-3.05,1.34-4.64c-0.61-1.83-2.44-2.93-5.01-3.05c-0.37,0-0.73-0.37-0.86-0.73c-0.24-1.46-0.98-2.69-2.32-3.42
			c-1.95-1.22-4.88-1.34-7.82-0.37c-0.24,0.12-0.49,0-0.73-0.12c-0.24-0.12-0.37-0.37-0.37-0.61c-0.12-1.1-0.61-2.69-2.08-3.54
			c-1.47-0.86-3.66-0.86-6.47,0.12c-0.37,0.12-0.86,0-1.1-0.49c-1.71-3.42-4.27-5.62-7.2-6.35c-2.56-0.73-5.5-0.24-7.94,1.34
			c-0.37,0.24-0.73,0.24-1.1,0c-2.44-1.83-5.5-2.44-8.18-1.59c-2.56,0.85-4.64,2.81-5.62,5.74c-0.12,0.24-0.24,0.49-0.49,0.49
			c-0.24,0.12-0.49,0.12-0.73,0c-4.03-1.59-7.33-1.59-9.52,0.12c-1.83,1.46-2.44,3.79-2.32,4.4c0,0.49-0.24,0.85-0.61,0.98
			l-0.98,0.24c-2.2,0.49-4.52,0.98-5.25,4.52c-0.12,0.37-0.37,0.73-0.86,0.73c-3.91,0.37-6.35,1.83-6.96,3.91
			c-0.37,1.47,0.37,3.18,1.71,4.15c1.34,0.98,3.05,0.85,4.52-0.24c0.24-0.12,0.61-0.24,0.86-0.12c2.32,0.86,5.98,0.73,8.18-1.1
			c1.59-1.34,2.2-3.18,1.83-5.74C87.81,109.86,87.93,109.61,88.17,109.37L88.17,109.37z M149.35,109.61
			c2.32-0.49,5.01,1.1,4.27,4.27c-0.12,0.49-1.47,0.61-1.34,0c0.24-2.56-1.1-2.81-2.81-2.81
			C148.86,111.08,148.86,109.74,149.35,109.61L149.35,109.61z M139.58,105.1c2.2-1.22,6.84-1.1,8.18,3.05
			c0.24,0.73-0.73,1.83-1.22,0.85c-1.71-3.18-4.52-3.18-6.84-2.32C139.22,106.81,138.73,105.58,139.58,105.1z M129.93,100.33
			c2.08-0.73,5.62-1.1,6.59,2.44c0.24,0.98-0.98,1.47-1.22,0.73c-0.98-2.56-2.81-2.44-4.88-1.71
			C129.32,102.17,129.57,100.46,129.93,100.33L129.93,100.33z M113.08,96.43c1.47-2.44,9.28-4.64,13.31,2.2
			c0.37,0.73-0.12,1.22-0.61,1.46c-0.37,0.24-0.49-0.24-0.73-0.61c-3.42-5.37-9.52-3.91-11.24-1.47
			C113.45,98.5,112.6,97.16,113.08,96.43z M100.51,96.91c1.34-2.2,6.11-5.49,10.26-1.83c0.49,0.37-0.12,1.95-0.61,1.59
			c-3.79-2.56-6.84-0.49-8.43,1.34C100.87,98.87,100.14,97.4,100.51,96.91z M77.92,112.06c-1.59,0-2.93,0-4.03,1.22
			c-1.22,1.34-0.85,1.95-1.1,2.2c-0.37,0.37-1.1-0.24-1.1-0.86c0.12-3.05,3.79-4.27,5.98-4.03
			C78.53,110.71,78.65,112.06,77.92,112.06z M84.51,106.93c-2.32,0.24-3.05,1.34-3.42,2.69c-0.12,0.49-1.47,0.12-1.22-0.85
			c0.61-2.93,3.79-3.54,4.88-3.3C85,105.58,84.88,106.93,84.51,106.93z M86.46,103.88c0.49-2.56,2.93-6.23,8.67-4.76
			c0.73,0.12,0.24,1.95-0.49,1.59c-4.15-1.59-6.23,1.47-6.84,4.03C87.69,104.97,86.22,104.85,86.46,103.88z"/>
		<path class="st2" d="M132.74,114.38c-0.37,0.24-1.34,0.73-1.59,0.98c-2.08,1.59-6.59,3.66-7.57,4.76
			c0.85,0.73,2.08,2.08,2.56,3.18c0.49,0,1.95-1.1,4.76-4.52c0.98-1.1,1.95-1.59,3.66-2.69
			C133.84,115.72,133.23,115.11,132.74,114.38z"/>
		<path class="st2" d="M91.96,222.57c2.2,0.61,3.05,0,3.05,0v-14.9c-1.34,0.24-3.42-0.61-5.74-0.73c-1.22,0-1.59,0.61-1.59,0.61
			v15.02C87.81,222.57,89.03,221.71,91.96,222.57z"/>
		<path class="st2" d="M104.54,153.45h-35.9v32.48h35.78L104.54,153.45z M99.04,179.34H88.78v1.34h-4.27v-1.34H74.25V162h2.2v-3.18
			c2.2,0.49,5.86-0.73,7.45-0.73c1.83,0,2.69,0.73,2.69,0.73s0.98-0.73,2.69-0.73c1.59,0,5.25,1.22,7.45,0.73V162h2.2v17.34H99.04z"
			/>
		<path class="st2" d="M89.27,160.05c-1.22,0-1.59,0.61-1.59,0.61v15.02c0,0,1.34-0.85,4.15-0.12c2.2,0.61,3.05,0,3.05,0v-14.9
			C93.79,161.02,91.59,160.17,89.27,160.05L89.27,160.05z"/>
	</g>
</g>
</svg>
