<svg xmlns="http://www.w3.org/2000/svg" viewBox="0 0 9.79 83.98" fill="#FEECE1">
  <path d="M7.81,0h2V5.86H5.86V3.91H3.91V2H2V5.86H0V0H3.91V2h2v2H7.81Z" />
  <path d="M0,7.81H7.81v2h2v3.9h-2v1.95H0V13.67H3.91V9.77H0Zm5.86,2v3.9H7.81V9.77Z" />
  <path d="M0,19.53H2v-2H7.81v2h2v3.91h-2V19.53H2v3.91H0Z" />
  <path d="M9.77,27.34H5.86v2H7.81v1.95h2v2h-2v-2H5.86V29.3H3.91v1.95H2v2H0v-2H2V29.3h2v-2H0V25.39H9.77Z" />
  <path d="M0,43H2V41H7.81V43h2v3.91h-2V43H2v3.91H0Z" />
  <path d="M0,48.83H9.77v2H5.86v3.91H9.77v2H0v-2H3.91V50.78H0Z" />
  <path d="M0,58.59H9.77v5.86h-2v-3.9H5.86v3.9H3.91v-3.9H2v3.9H0Z" />
  <path d="M0,66.41H9.77v2h-2v2H5.86v2H9.77v2H0v-2H3.91v-2h2v-2H0Z" />
  <path d="M7.81,82V78.12H2V82h2v-2h2V84H2V82H0V78.12H2v-2H7.83v2h2V82Z" />
</svg>